<svg width="150" height="150" viewBox="0 0 150 150" fill="none" xmlns="http://www.w3.org/2000/svg">
<path d="M18 70.4994C34.2314 59.5239 75.7546 45.7673 119.67 66.4909C124.76 68.8927 125.156 75.659 120.269 78.4508C100.232 89.8984 66.1034 99.9247 32.7434 82.4063C26.8453 79.309 19 83.2209 19 89.8828V100" stroke="black" stroke-width="5"/>
<path d="M17 114.5V120.589C17 123.602 18.6807 126.382 21.4433 127.585C45.827 138.2 95.0802 147.534 128.5 122" stroke="black" stroke-width="5"/>
<path d="M89 81C94.6667 79.6667 105.7 76.4 104.5 74" stroke="black" stroke-width="5" stroke-linecap="round"/>
<path d="M74 76.5V66.1454C74 62.0754 77.1069 58.7943 80.9774 57.5354C91.6757 54.0556 104.221 43.0254 75 7" stroke="black" stroke-width="5" stroke-linecap="round"/>
<path d="M68 55.5C57 54 41.5 48 74.5 7" stroke="black" stroke-width="5" stroke-linecap="round"/>
<path d="M43.5 75.4995C46.5 72.1662 54.4 65.6995 62 66.4995" stroke="black" stroke-width="5" stroke-linecap="round"/>
<path d="M66 54.4999C67.6667 48.8333 72.5 36.9995 74.5 38.9995C77 41.4995 84 53 82 54.4999" stroke="black" stroke-width="5" stroke-linecap="round"/>
</svg>
