<svg width="150" height="150" viewBox="0 0 150 150" fill="none" xmlns="http://www.w3.org/2000/svg">
<path d="M62 52L57 37" stroke="black" stroke-width="6" stroke-linecap="round"/>
<path d="M73.5 51L75.5 37" stroke="black" stroke-width="6" stroke-linecap="round"/>
<path d="M88.5 49.5L90 36" stroke="black" stroke-width="6" stroke-linecap="round"/>
<path d="M54 52C48.1667 59.5 35.9 76.4 33.5 84C30.5 93.5 24 119 26.5 125C29 131 32 139 47.5 139.5C59.9 139.9 89.6667 139.667 103 139.5C112 139.167 128.8 133.7 124 114.5C120 89.5 117.5 85 114.5 78.5C112.189 73.4926 101.965 59.7376 96.597 52.7726C96.2196 52.2828 95.6381 52 95.0197 52H54ZM54 52C38.3333 57.6667 8.7 72.4 15.5 86" stroke="black" stroke-width="6" stroke-linecap="round"/>
<path d="M96.5 52.5C107.5 54.5 130.5 63.9 134.5 85.5" stroke="black" stroke-width="6" stroke-linecap="round"/>
<path d="M94.5 50.5C101.916 43.2388 115.432 27.1845 114.5 17.2317C114.386 16.0233 113.048 15.5156 111.981 16.0936L103.098 20.905C102.426 21.2691 101.605 21.2182 100.983 20.7739L89.2066 12.3619C88.4899 11.85 87.5228 11.8671 86.8247 12.4041L76.1753 20.5959C75.4772 21.1329 74.5101 21.15 73.7934 20.6381L62.2841 12.4172C61.5311 11.8794 60.5075 11.9283 59.8092 12.5354L50.4643 20.6614C49.8763 21.1727 49.0449 21.296 48.3339 20.9773L38.1316 16.4038C36.7333 15.777 35.1957 16.8845 35.4327 18.3985C36.9423 28.0424 41.58 43.6857 51.5 49" stroke="black" stroke-width="6" stroke-linecap="round"/>
<path d="M41.3682 97C38.1336 105.826 33.6986 124.322 41.8355 127.697" stroke="black" stroke-width="6" stroke-linecap="round"/>
</svg>
