<svg width="150" height="150" viewBox="0 0 150 150" fill="none" xmlns="http://www.w3.org/2000/svg">
<path d="M74.5 107.5V77V62.5" stroke="black" stroke-width="6" stroke-linecap="round"/>
<path d="M51.5 55.5L40.6497 61.3772C39.9513 61.7556 39.5429 62.5114 39.6093 63.303L45.8463 137.667C45.9332 138.703 46.7995 139.5 47.8393 139.5H99.1607C100.2 139.5 101.067 138.703 101.154 137.667L107.391 63.303C107.457 62.5114 107.049 61.7556 106.35 61.3772L95.5 55.5M51.5 55.5H95.5M51.5 55.5L57.8874 47.7438C58.2745 47.2738 58.4264 46.653 58.3001 46.0574L51.7382 15.1228C51.5907 14.4275 51.8233 13.7061 52.3493 13.2279L56.4279 9.52012C56.796 9.18544 57.2757 9 57.7732 9H89.6716C90.202 9 90.7107 9.21071 91.0858 9.58579L94.7911 13.2911C95.2372 13.7372 95.4467 14.3678 95.3562 14.9922L90.6153 47.7046C90.5413 48.215 90.6674 48.7343 90.9671 49.154L95.5 55.5" stroke="black" stroke-width="6" stroke-linecap="round"/>
<path d="M46 126.5H57.6716C58.202 126.5 58.7107 126.711 59.0858 127.086L68.4142 136.414C68.7893 136.789 69.298 137 69.8284 137H79.4708C80.1167 137 80.7228 136.688 81.0982 136.162L87.4018 127.338C87.7772 126.812 88.3833 126.5 89.0292 126.5H102" stroke="black" stroke-width="6" stroke-linecap="round"/>
</svg>
