<svg width="150" height="150" viewBox="0 0 150 150" fill="none" xmlns="http://www.w3.org/2000/svg">
<path d="M56.5 121.5V121.5C56.5 125.366 59.634 128.5 63.5 128.5H67" stroke="black" stroke-width="5" stroke-linecap="round"/>
<path d="M92 55.5V18.0738C92 15.5143 90.7753 13.1093 88.7054 11.6039L88.6039 11.5301C87.2365 10.5357 85.5893 10 83.8985 10H65.7643C64.2839 10 62.8324 10.4108 61.5716 11.1867L60.8072 11.6571C58.4412 13.1131 57 15.6923 57 18.4704V55.5" stroke="black" stroke-width="5" stroke-linecap="round"/>
<path d="M87.1578 64H63.1884C61.1219 64 59.1355 64.7997 57.6454 66.2315L50.457 73.139C48.8872 74.6474 48 76.7305 48 78.9075V131C48 135.418 51.5817 139 56 139H93C97.4183 139 101 135.418 101 131V78.5496C101 76.5854 100.277 74.69 98.97 73.2243L93.1278 66.6747C91.6099 64.9731 89.438 64 87.1578 64Z" stroke="black" stroke-width="5" stroke-linecap="round"/>
</svg>
