<svg width="150" height="150" viewBox="0 0 150 150" fill="none" xmlns="http://www.w3.org/2000/svg">
<path d="M54 9L96 124" stroke="black" stroke-width="5"/>
<path d="M100.004 11.46L48.865 122.328" stroke="black" stroke-width="5"/>
<path d="M74.0959 5.84766L74.7726 127.94" stroke="black" stroke-width="5"/>
<path d="M63.1427 72L43.6314 77.7822C40.8999 78.5917 38.1574 84.6726 37.1277 87.6119C37.0313 101.248 36.8964 129.59 37.1277 133.869C37.3589 138.148 43.9687 143.073 47.2446 145H101.009C107.021 145 110.837 136.616 111.993 132.424C111.897 118.787 111.762 90.7343 111.993 87.6119C112.224 84.4895 106.597 79.0832 103.755 76.7703L86.8452 72H63.1427Z" stroke="black" stroke-width="5"/>
<path d="M39 135L110 136" stroke="black" stroke-width="5"/>
<path d="M112 112H37" stroke="black" stroke-width="5"/>
<path d="M95 84C97.6667 84.9825 103 87.9789 103 92.1053C103 96.2316 103 97.7544 103 98" stroke="black" stroke-width="5"/>
<path d="M103 101V105" stroke="black" stroke-width="5"/>
<path d="M86.8571 73V58.0982M86.8571 58.0982C90.7381 56.1016 96.1714 51.2609 86.8571 47.8715C77.5428 44.4821 65.9 46.4592 61.2429 47.8715C58.0411 49.3324 53.5586 53.4231 61.2429 58.0982M86.8571 58.0982C82.2115 59.7941 72.0656 62.0804 64.447 59.5593M61.2429 58.0982C62.2375 58.7033 63.3143 59.1844 64.447 59.5593M61.2429 58.0982L62.8449 58.8287M64.447 59.5593L62.8449 58.8287M62.8449 58.8287V71.9774" stroke="black" stroke-width="5"/>
</svg>
