<svg width="150" height="150" viewBox="0 0 150 150" fill="none" xmlns="http://www.w3.org/2000/svg">
<circle cx="73.5" cy="98.5" r="40.5" stroke="black" stroke-width="6"/>
<path d="M90.068 60.6498C91.519 57.6287 92.1722 54.2646 91.9613 50.8983C91.7504 47.532 90.6829 44.2832 88.867 41.4811C87.0512 38.679 84.5515 36.4233 81.6212 34.9424C78.691 33.4616 75.4344 32.8082 72.1814 33.0487C68.9285 33.2891 65.7947 34.4147 63.0978 36.3115C60.4009 38.2083 58.2367 40.8088 56.8245 43.8494C55.4123 46.8901 54.8022 50.2629 55.0562 53.626C55.3101 56.9891 56.4191 60.223 58.2706 63L61.6705 60.5746C60.2323 58.4176 59.371 55.9056 59.1737 53.2933C58.9764 50.681 59.4503 48.0612 60.5472 45.6993C61.6442 43.3375 63.3253 41.3176 65.4201 39.8442C67.5149 38.3709 69.949 37.4966 72.4758 37.3098C75.0026 37.1231 77.5321 37.6305 79.8082 38.7808C82.0843 39.931 84.0259 41.6832 85.4364 43.8597C86.8469 46.0363 87.676 48.5598 87.8399 51.1746C88.0037 53.7894 87.4964 56.4025 86.3693 58.7491L90.068 60.6498Z" fill="black"/>
<path d="M61 40C56.8381 37.7656 47.2114 28.0375 42 7" stroke="black" stroke-width="6" stroke-linecap="round"/>
<path d="M87 39C90.9429 36.7656 100.063 27.0375 105 6" stroke="black" stroke-width="6" stroke-linecap="round"/>
<path d="M100.289 97C102.977 100.125 104.482 109.5 89 122" stroke="black" stroke-width="6" stroke-linecap="round"/>
<path d="M77 70.0103C72.3901 69.8287 60.9362 71.9723 52 82" stroke="black" stroke-width="6" stroke-linecap="round"/>
</svg>
