<svg width="150" height="150" viewBox="0 0 150 150" fill="none" xmlns="http://www.w3.org/2000/svg">
<g clip-path="url(#clip0_597_5571)">
<path d="M49.5 71V83.5V123.5C49.5 127.918 53.0817 131.5 57.5 131.5H90C94.4183 131.5 98 127.918 98 123.5V116" stroke="black" stroke-width="6" stroke-linecap="round"/>
<path d="M99 108.5V71C99 66.5817 95.4183 63 91 63H66" stroke="black" stroke-width="6" stroke-linecap="round"/>
<path d="M165.5 114L168.5 119M68 75V96.5C68 97.6046 68.8954 98.5 70 98.5H79.5C80.6046 98.5 81.5 97.6046 81.5 96.5V75C81.5 73.8954 80.6046 73 79.5 73H70C68.8954 73 68 73.8954 68 75Z" stroke="black" stroke-width="6" stroke-linecap="round"/>
<path d="M51.5 55.5L40.5474 61.4326C39.902 61.7822 39.5 62.4572 39.5 63.1912V137.5C39.5 138.605 40.3954 139.5 41.5 139.5H105.5C106.605 139.5 107.5 138.605 107.5 137.5V63.1912C107.5 62.4572 107.098 61.7822 106.453 61.4326L95.5 55.5M51.5 55.5H95.5M51.5 55.5V14.8847C51.5 14.3212 51.7377 13.7839 52.1547 13.4049L56.4279 9.52012C56.796 9.18544 57.2757 9 57.7732 9H89.6716C90.202 9 90.7107 9.21071 91.0858 9.58579L94.9142 13.4142C95.2893 13.7893 95.5 14.298 95.5 14.8284V55.5" stroke="black" stroke-width="6" stroke-linecap="round"/>
</g>
<defs>
<clipPath id="clip0_597_5571">
<rect width="150" height="150" fill="white"/>
</clipPath>
</defs>
</svg>
