<?xml version="1.0" encoding="iso-8859-1"?>
<!-- Uploaded to: SVG Repo, www.svgrepo.com, Generator: SVG Repo Mixer Tools -->
<svg fill="#000000" height="800px" width="800px" version="1.1" id="Layer_1" xmlns="http://www.w3.org/2000/svg" xmlns:xlink="http://www.w3.org/1999/xlink" 
	 viewBox="0 0 512 512" xml:space="preserve">
<g>
	<g>
		<path d="M394.672,0c-51.368,0-93.146,24.132-103.748,57.358h-47.885V10.906H120.076v92.907H84.085v88.399l-19.98,22.84
			c-32.319,36.944-51.137,84.304-52.984,133.356C9.273,397.458,24.474,446.1,53.924,485.37L73.894,512h215.328l19.969-26.63
			c29.449-39.271,44.651-87.913,42.803-136.963c-1.848-49.052-20.664-96.412-52.984-133.356l-19.98-22.84v-88.399h-35.991V90.75
			h47.885c10.602,33.227,52.38,57.36,103.748,57.36c59.64,0,106.358-32.529,106.358-74.055S454.312,0,394.672,0z M153.468,44.297
			h56.181v59.516h-56.181V44.297z M89.236,237.037l19.122-21.858h56.504v123.398H45.254
			C48.991,301.146,64.384,265.445,89.236,237.037z M282.478,465.338l-9.953,13.271H90.591l-9.953-13.271
			c-20.392-27.194-32.688-59.707-35.597-93.37h119.822v41.194h33.391v-41.194h119.822
			C315.165,405.63,302.87,438.144,282.478,465.338z M273.879,237.037c24.852,28.408,40.245,64.108,43.981,101.54H198.252V215.179
			h56.505L273.879,237.037z M245.639,137.204v44.584H117.476v-44.584H245.639z M394.672,114.718
			c-38.87,0-72.966-19.002-72.966-40.664c0-21.661,34.096-40.663,72.966-40.663s72.967,19.002,72.967,40.663
			C467.639,95.716,433.543,114.718,394.672,114.718z"/>
	</g>
</g>
</svg>