<?xml version="1.0" encoding="iso-8859-1"?>
<!-- Uploaded to: SVG Repo, www.svgrepo.com, Generator: SVG Repo Mixer Tools -->
<svg fill="#000000" height="800px" width="800px" version="1.1" id="Layer_1" xmlns="http://www.w3.org/2000/svg" xmlns:xlink="http://www.w3.org/1999/xlink" 
	 viewBox="0 0 511.997 511.997" xml:space="preserve">
<g>
	<g>
		<path d="M427.097,419.169c29.237-31.613,45.208-72.32,45.208-115.808c0-73.732-46.934-136.703-112.493-160.616V33.127
			c0-8.063-6.538-14.601-14.601-14.601h-87.607c-8.063,0-14.601,6.538-14.601,14.601v40.397H214.71
			C207.731,31.86,171.434,0,127.817,0C79.224,0,39.692,39.533,39.692,88.125c0,48.591,39.533,88.124,88.124,88.124
			c43.618,0,79.914-31.858,86.894-73.523h28.293v40.017c-65.561,23.912-112.495,86.886-112.495,160.616
			c0,43.488,15.971,84.195,45.208,115.808l-38.169,71.341c-2.421,4.526-2.288,9.99,0.349,14.392
			c2.638,4.402,7.393,7.096,12.525,7.096h301.97c5.132,0,9.886-2.695,12.525-7.096c2.638-4.404,2.77-9.867,0.349-14.392
			L427.097,419.169z M186.674,90.754c-1.381,31.274-27.249,56.295-58.857,56.295c-32.491,0-58.922-26.432-58.922-58.922
			c0-32.489,26.431-58.924,58.922-58.924c31.61,0,57.477,25.022,58.857,56.298c-0.155,0.853-0.248,1.729-0.248,2.627
			C186.426,89.025,186.52,89.899,186.674,90.754z M272.205,47.728h58.405v87.226c-0.263-0.045-0.529-0.074-0.791-0.12
			c-2.035-0.342-4.08-0.654-6.138-0.924c-0.134-0.018-0.269-0.039-0.404-0.057c-2.146-0.276-4.31-0.499-6.48-0.695
			c-0.407-0.036-0.813-0.074-1.221-0.108c-2.092-0.172-4.195-0.308-6.308-0.404c-0.429-0.019-0.859-0.032-1.288-0.05
			c-2.127-0.08-4.261-0.134-6.406-0.136c-0.055,0-0.111-0.003-0.166-0.003s-0.111,0.003-0.166,0.003
			c-2.146,0.001-4.28,0.056-6.407,0.136c-0.429,0.016-0.859,0.031-1.288,0.05c-2.113,0.096-4.215,0.232-6.308,0.404
			c-0.407,0.034-0.812,0.072-1.219,0.108c-2.171,0.194-4.335,0.419-6.483,0.695c-0.133,0.018-0.266,0.038-0.399,0.055
			c-2.062,0.27-4.109,0.583-6.147,0.926c-0.26,0.045-0.524,0.076-0.786,0.121V47.728z M174.793,482.798l27.056-50.573h102.325
			c8.063,0,14.601-6.538,14.601-14.601s-6.538-14.601-14.601-14.601H200.691c-26.457-26.691-40.981-61.912-40.981-99.663
			c0-66.644,46.252-122.68,108.338-137.72c0.821-0.197,1.641-0.393,2.465-0.575c0.51-0.114,1.019-0.225,1.53-0.334
			c19.278-4.043,39.445-4.043,58.723,0c0.515,0.109,1.029,0.222,1.542,0.336c0.818,0.181,1.631,0.375,2.446,0.571
			c62.091,15.036,108.349,71.074,108.349,137.723c0,39.172-15.632,75.625-44.017,102.646c-4.757,4.529-5.906,11.674-2.808,17.464
			l31.74,59.327H174.793z"/>
	</g>
</g>
<g>
	<g>
		<path d="M406.658,266.296c-1.784-33.315-28.729-59.414-61.344-59.414c-18.546,0-33.882,10.614-43.798,19.971
			c-9.812-9.365-25.099-19.971-44.021-19.971c-32.615,0-59.558,26.098-61.341,59.417c-1.075,20.128,6.67,34.399,12.591,43.38
			c8.086,12.271,27.796,30.569,43.547,43.598c35.249,29.166,45.026,29.166,49.2,29.166c4.227,0,14.122,0,49.193-29.116
			c15.631-12.977,35.237-31.26,43.393-43.66C399.994,300.666,407.736,286.38,406.658,266.296z M369.678,293.621
			c-10.501,15.971-54.468,52.853-68.151,59.107c-13.804-6.346-57.946-43.256-68.399-59.119c-5.957-9.04-8.295-16.742-7.815-25.752
			c0.939-17.52,15.374-31.774,32.181-31.774c14.451,0,27.841,15.125,31.749,20.904c2.656,4.002,7.128,6.42,11.931,6.503
			c0.085,0,0.166,0.001,0.25,0.001c4.712,0,9.155-2.294,11.897-6.137c4.227-5.916,18.212-21.272,31.993-21.272
			c16.807,0,31.244,14.254,32.184,31.775C377.986,276.967,375.721,284.431,369.678,293.621z"/>
	</g>
</g>
<g>
	<g>
		<path d="M362.061,414.766c-0.19-0.933-0.467-1.853-0.832-2.73c-0.365-0.876-0.818-1.723-1.343-2.525
			c-0.539-0.788-1.137-1.535-1.825-2.206c-0.672-0.686-1.416-1.285-2.205-1.825c-0.803-0.524-1.65-0.978-2.525-1.343
			c-0.878-0.365-1.796-0.641-2.73-0.831c-4.745-0.949-9.783,0.597-13.185,3.999c-0.672,0.672-1.285,1.418-1.811,2.206
			c-0.524,0.803-0.978,1.65-1.343,2.525c-0.365,0.878-0.641,1.796-0.831,2.73c-0.191,0.949-0.292,1.898-0.292,2.862
			c0,0.949,0.101,1.914,0.292,2.847c0.19,0.935,0.466,1.854,0.831,2.73c0.365,0.876,0.819,1.736,1.343,2.525
			c0.526,0.803,1.139,1.549,1.811,2.221c0.672,0.672,1.416,1.285,2.221,1.811c0.803,0.524,1.65,0.978,2.525,1.343
			c0.875,0.365,1.796,0.641,2.73,0.831c0.949,0.19,1.898,0.292,2.847,0.292c0.964,0,1.913-0.102,2.862-0.292
			c0.934-0.19,1.854-0.466,2.73-0.831c0.876-0.365,1.723-0.819,2.525-1.343c0.788-0.526,1.533-1.139,2.205-1.811
			c0.688-0.672,1.286-1.418,1.825-2.221c0.526-0.788,0.978-1.65,1.343-2.525c0.365-0.878,0.642-1.796,0.832-2.73
			s0.277-1.898,0.277-2.847C362.338,416.665,362.249,415.716,362.061,414.766z"/>
	</g>
</g>
</svg>