<?xml version="1.0" encoding="iso-8859-1"?>
<!-- Uploaded to: SVG Repo, www.svgrepo.com, Generator: SVG Repo Mixer Tools -->
<!DOCTYPE svg PUBLIC "-//W3C//DTD SVG 1.1//EN" "http://www.w3.org/Graphics/SVG/1.1/DTD/svg11.dtd">
<svg fill="#000000" version="1.1" id="Capa_1" xmlns="http://www.w3.org/2000/svg" xmlns:xlink="http://www.w3.org/1999/xlink" 
	 width="800px" height="800px" viewBox="0 0 76.959 76.959"
	 xml:space="preserve">
<g>
	<g>
		<path d="M64.77,18.647h-0.561c1.701-1.979,2.736-4.543,2.736-7.35C66.945,5.068,61.877,0,55.649,0
			C49.42,0,44.353,5.068,44.353,11.297c0,2.807,1.035,5.371,2.735,7.35h-0.561c-3.144,0-5.701,2.557-5.701,5.701v18.738
			c0,3.145,2.559,5.703,5.701,5.703h0.219v20.494c0,3.25,1.713,5.703,3.983,5.703h9.835c2.271,0,3.984-2.453,3.984-5.703V48.79
			h0.219c3.143,0,5.701-2.56,5.701-5.703V24.349C70.471,21.204,67.912,18.647,64.77,18.647z M55.65,3.946
			c4.051,0,7.348,3.299,7.348,7.352c0,4.053-3.297,7.35-7.348,7.35c-4.054,0-7.351-3.297-7.351-7.35
			C48.3,7.245,51.597,3.946,55.65,3.946z M66.525,43.087c0,0.97-0.789,1.757-1.756,1.757h-2.191c-1.09,0-1.974,0.883-1.974,1.973
			v22.469c0,0.881-0.228,1.488-0.384,1.756h-9.143c-0.156-0.268-0.385-0.875-0.385-1.756V46.814c0-1.09-0.884-1.973-1.974-1.973
			h-2.19c-0.968,0-1.756-0.787-1.756-1.756V24.349c0-0.967,0.788-1.756,1.756-1.756h18.239c0.968,0,1.756,0.789,1.756,1.756
			L66.525,43.087L66.525,43.087z"/>
		<path d="M31.837,50.587c2.467-0.627,4.297-2.866,4.297-5.526V26.323c0-3.146-2.558-5.701-5.701-5.701h-0.561
			c1.701-1.98,2.736-4.545,2.736-7.352c0-6.229-5.067-11.297-11.297-11.297c-6.227,0-11.295,5.068-11.295,11.297
			c0,2.807,1.035,5.371,2.736,7.352h-0.561c-3.143,0-5.701,2.555-5.701,5.701v18.735c0,2.66,1.831,4.9,4.297,5.527l-3.959,5.863
			c-0.409,0.605-0.45,1.387-0.107,2.031c0.342,0.645,1.013,1.047,1.742,1.047h3.947v11.729c0,3.252,1.712,5.703,3.983,5.703h9.836
			c2.271,0,3.983-2.451,3.983-5.703V59.528h3.947c0.01,0,0.018,0,0.027,0c1.089,0,1.973-0.884,1.973-1.974
			c0-0.516-0.197-0.981-0.521-1.336L31.837,50.587z M21.312,5.919c4.054,0,7.35,3.297,7.35,7.352c0,4.055-3.296,7.352-7.35,7.352
			c-4.052,0-7.348-3.297-7.348-7.352C13.965,9.216,17.261,5.919,21.312,5.919z M26.607,49.895l3.84,5.687h-2.205
			c-1.09,0-1.975,0.886-1.975,1.976v13.7c0,0.884-0.227,1.488-0.383,1.757h-9.143c-0.156-0.269-0.384-0.873-0.384-1.757v-13.7
			c0-1.09-0.884-1.976-1.974-1.976h-2.205l3.84-5.687c0.41-0.606,0.45-1.387,0.107-2.03c-0.342-0.646-1.012-1.05-1.742-1.05h-2.191
			c-0.968,0-1.754-0.786-1.754-1.756V26.323c0-0.969,0.786-1.756,1.754-1.756h18.24c0.967,0,1.754,0.787,1.754,1.756v18.735
			c0,0.97-0.787,1.756-1.754,1.756h-2.191c-0.73,0-1.4,0.404-1.742,1.05C26.158,48.51,26.198,49.288,26.607,49.895z"/>
	</g>
</g>
</svg>